<?xml version="1.0" standalone="no"?>
<!DOCTYPE svg PUBLIC "-//W3C//DTD SVG 20010904//EN"
 "http://www.w3.org/TR/2001/REC-SVG-20010904/DTD/svg10.dtd">
<svg version="1.0" xmlns="http://www.w3.org/2000/svg"
 width="204.000000pt" height="204.000000pt" viewBox="0 0 204.000000 204.000000"
 preserveAspectRatio="xMidYMid meet">
<metadata>
Created by potrace 1.14, written by Peter Selinger 2001-2017
</metadata>
<g transform="translate(0.000000,204.000000) scale(0.100000,-0.100000)"
fill="#000000" stroke="none">
<path d="M0 1913 l1 -128 18 52 c32 93 91 152 186 185 l50 17 -127 1 -128 0 0
-127z"/>
<path d="M1837 2021 c93 -32 152 -91 185 -186 l17 -50 1 128 0 127 -127 0
-128 -1 52 -18z"/>
<path d="M847 1754 c-100 -24 -246 -106 -324 -182 -71 -69 -156 -186 -151
-208 2 -7 55 -52 118 -101 l115 -88 28 56 c70 144 239 249 402 251 87 1 186
-29 248 -77 l44 -34 104 105 104 105 -40 36 c-49 43 -198 117 -280 138 -75 19
-287 19 -368 -1z"/>
<path d="M1040 1015 l0 -145 205 0 205 0 -6 -27 c-12 -55 -44 -109 -93 -158
-47 -47 -48 -50 -30 -63 11 -7 17 -17 14 -22 -3 -5 0 -12 6 -16 8 -5 9 -3 4 7
-4 8 7 -2 26 -22 19 -19 25 -24 14 -10 -21 27 -14 23 52 -29 23 -18 40 -36 38
-40 -3 -4 3 -14 12 -21 12 -10 14 -10 9 -1 -4 6 -3 12 2 12 15 0 33 -26 24
-36 -4 -5 4 0 17 11 45 38 111 133 145 211 62 142 85 275 71 418 l-7 76 -354
0 -354 0 0 -145z"/>
<path d="M590 855 c-11 -13 -10 -14 4 -9 9 3 16 10 16 15 0 13 -6 11 -20 -6z"/>
<path d="M454 748 l-19 -23 23 19 c21 18 27 26 19 26 -2 0 -12 -10 -23 -22z"/>
<path d="M745 660 c10 -11 20 -20 23 -20 3 0 -3 9 -13 20 -10 11 -20 20 -23
20 -3 0 3 -9 13 -20z"/>
<path d="M908 573 c7 -3 16 -2 19 1 4 3 -2 6 -13 5 -11 0 -14 -3 -6 -6z"/>
<path d="M948 563 c7 -3 16 -2 19 1 4 3 -2 6 -13 5 -11 0 -14 -3 -6 -6z"/>
<path d="M1118 563 c6 -2 18 -2 25 0 6 3 1 5 -13 5 -14 0 -19 -2 -12 -5z"/>
<path d="M1013 553 c15 -2 39 -2 55 0 15 2 2 4 -28 4 -30 0 -43 -2 -27 -4z"/>
<path d="M490 505 c13 -14 26 -25 28 -25 3 0 -5 11 -18 25 -13 14 -26 25 -28
25 -3 0 5 -11 18 -25z"/>
<path d="M579 426 c13 -16 51 -41 51 -33 0 2 -15 14 -32 27 -21 15 -28 17 -19
6z"/>
<path d="M1479 413 c-13 -16 -12 -17 4 -4 9 7 17 15 17 17 0 8 -8 3 -21 -13z"/>
<path d="M1320 330 c-8 -5 -10 -10 -5 -10 6 0 17 5 25 10 8 5 11 10 5 10 -5 0
-17 -5 -25 -10z"/>
<path d="M790 310 c8 -5 22 -9 30 -9 10 0 8 3 -5 9 -27 12 -43 12 -25 0z"/>
<path d="M1270 310 c-8 -5 -10 -10 -5 -10 6 0 17 5 25 10 8 5 11 10 5 10 -5 0
-17 -5 -25 -10z"/>
<path d="M1228 293 c7 -3 16 -2 19 1 4 3 -2 6 -13 5 -11 0 -14 -3 -6 -6z"/>
<path d="M0 128 l0 -128 128 0 127 1 -50 17 c-95 33 -154 92 -186 185 l-18 52
-1 -127z"/>
<path d="M2026 217 c-9 -46 -57 -119 -101 -153 -20 -15 -60 -36 -88 -45 l-52
-18 128 -1 127 0 0 125 c0 69 -2 125 -4 125 -2 0 -7 -15 -10 -33z"/>
</g>
</svg>
